HIERARCHY
ROOT Hip
{
	OFFSET 0 1.131 0.0052
	CHANNELS 6 Xposition Yposition Zposition Xrotation Yrotation Zrotation
	JOINT Abdomen
	{
		OFFSET 0 -0.047353 -0.05
		CHANNELS 3 Xrotation Zrotation Yrotation
		JOINT Chest
		{
			OFFSET 0 0.132153 0.007439
			CHANNELS 3 Xrotation Zrotation Yrotation
			JOINT Neck
			{
				OFFSET 0 0.3078 0.006161
				CHANNELS 3 Xrotation Zrotation Yrotation
				JOINT Head_comp
				{
					OFFSET 0 0.0884 0.013
					CHANNELS 3 Xrotation Yrotation Zrotation
					End Site
					{
						OFFSET -0 0.156 0.0624
					}
				}
			}
			JOINT Left_Collar
			{
				OFFSET 0.02282 0.250342 0.017193
				CHANNELS 2 Yrotation Zrotation
				JOINT Left_Shoulder
				{
					OFFSET 0.15421 0 0
					CHANNELS 3 Xrotation Yrotation Zrotation
					JOINT Left_Forearm
					{
						OFFSET 0.265212 0 0
						CHANNELS 2 Yrotation Xrotation
						JOINT Left_Hand
						{
							OFFSET 0.27571 0 0
							CHANNELS 2 Zrotation Yrotation
							JOINT L1ProxPhalanx
							{
								OFFSET 0.014142 0.001733 0.014142
								CHANNELS 3 Yrotation Zrotation Xrotation
								JOINT L1MidPhalanx
								{
									OFFSET 0.04 0 0
									CHANNELS 1 Zrotation
									JOINT L1DistPhalanx
									{
										OFFSET 0.035 0 0
										CHANNELS 1 Zrotation
										End Site
										{
											OFFSET 0.029 -0 -0
										}
									}
								}
							}
							JOINT L2ProxPhalanx
							{
								OFFSET 0.0821037 0.001578 0.0219996
								CHANNELS 2 Yrotation Zrotation
								JOINT L2MidPhalanx
								{
									OFFSET 0.04 0 0
									CHANNELS 1 Zrotation
									JOINT L2DistPhalanx
									{
										OFFSET 0.028 0 0
										CHANNELS 1 Zrotation
										End Site
										{
											OFFSET 0.02 -0 -0
										}
									}
								}
							}
							JOINT L3ProxPhalanx
							{
								OFFSET 0.083 0 0
								CHANNELS 2 Yrotation Zrotation
								JOINT L3MidPhalanx
								{
									OFFSET 0.053 0 0
									CHANNELS 1 Zrotation
									JOINT L3DistPhalanx
									{
										OFFSET 0.03 0 0
										CHANNELS 1 Zrotation
										End Site
										{
											OFFSET 0.023 -0 -0
										}
									}
								}
							}
							JOINT L4ProxPhalanx
							{
								OFFSET 0.077274 -0.000761 -0.0207055
								CHANNELS 2 Yrotation Zrotation
								JOINT L4MidPhalanx
								{
									OFFSET 0.05 0 0
									CHANNELS 1 Zrotation
									JOINT L4DistPhalanx
									{
										OFFSET 0.03 0 0
										CHANNELS 1 Zrotation
										End Site
										{
											OFFSET 0.023 -0 -0
										}
									}
								}
							}
							JOINT L5ProxPhalanx
							{
								OFFSET 0.0675499 -0.001644 -0.039
								CHANNELS 2 Yrotation Zrotation
								JOINT L5MidPhalanx
								{
									OFFSET 0.04 0 0
									CHANNELS 1 Zrotation
									JOINT L5DistPhalanx
									{
										OFFSET 0.021 0 0
										CHANNELS 1 Zrotation
										End Site
										{
											OFFSET 0.022 -0 -0
										}
									}
								}
							}
						}
					}
				}
			}
			JOINT Right_Collar
			{
				OFFSET -0.02282 0.250342 0.017193
				CHANNELS 2 Yrotation Zrotation
				JOINT Right_Shoulder
				{
					OFFSET -0.15421 0 0
					CHANNELS 3 Xrotation Yrotation Zrotation
					JOINT Right_Forearm
					{
						OFFSET -0.265212 0 0
						CHANNELS 2 Yrotation Xrotation
						JOINT Right_Hand
						{
							OFFSET -0.27571 3e-006 0
							CHANNELS 2 Zrotation Yrotation
							JOINT R1ProxPhalanx
							{
								OFFSET -0.014142 0.001733 0.014142
								CHANNELS 3 Yrotation Zrotation Xrotation
								JOINT R1MidPhalanx
								{
									OFFSET -0.04 0 0
									CHANNELS 1 Zrotation
									JOINT R1DistPhalanx
									{
										OFFSET -0.035 0 0
										CHANNELS 1 Zrotation
										End Site
										{
											OFFSET -0.029 -0 -0
										}
									}
								}
							}
							JOINT R2ProxPhalanx
							{
								OFFSET -0.0821037 0.001578 0.0219996
								CHANNELS 2 Yrotation Zrotation
								JOINT R2MidPhalanx
								{
									OFFSET -0.04 0 0
									CHANNELS 1 Zrotation
									JOINT R2DistPhalanx
									{
										OFFSET -0.028 0 0
										CHANNELS 1 Zrotation
										End Site
										{
											OFFSET -0.02 -0 -0
										}
									}
								}
							}
							JOINT R3ProxPhalanx
							{
								OFFSET -0.083 0 0
								CHANNELS 2 Yrotation Zrotation
								JOINT R3MidPhalanx
								{
									OFFSET -0.053 0 0
									CHANNELS 1 Zrotation
									JOINT R3DistPhalanx
									{
										OFFSET -0.03 0 0
										CHANNELS 1 Zrotation
										End Site
										{
											OFFSET -0.023 -0 -0
										}
									}
								}
							}
							JOINT R4ProxPhalanx
							{
								OFFSET -0.077274 -0.000761 -0.0207055
								CHANNELS 2 Yrotation Zrotation
								JOINT R4MidPhalanx
								{
									OFFSET -0.05 0 0
									CHANNELS 1 Zrotation
									JOINT R4DistPhalanx
									{
										OFFSET -0.03 0 0
										CHANNELS 1 Zrotation
										End Site
										{
											OFFSET -0.023 -0 -0
										}
									}
								}
							}
							JOINT R5ProxPhalanx
							{
								OFFSET -0.0675499 -0.001644 -0.039
								CHANNELS 2 Yrotation Zrotation
								JOINT R5MidPhalanx
								{
									OFFSET -0.04 0 0
									CHANNELS 1 Zrotation
									JOINT R5DistPhalanx
									{
										OFFSET -0.021 0 0
										CHANNELS 1 Zrotation
										End Site
										{
											OFFSET -0.022 -0 -0
										}
									}
								}
							}
						}
					}
				}
			}
		}
	}
	JOINT Left_Thigh
	{
		OFFSET 0.1118 -0.1612 -0.0442
		CHANNELS 3 Xrotation Zrotation Yrotation
		JOINT Left_Shin
		{
			OFFSET 0 -0.477856 0
			CHANNELS 1 Xrotation
			JOINT Left_Foot
			{
				OFFSET 0 -0.431952 0
				CHANNELS 2 Xrotation Zrotation
				JOINT Left_Toe
				{
					OFFSET 0 -0.0442 0.119
					CHANNELS 1 Xrotation
					End Site
					{
						OFFSET -0 -0 0.07
					}
				}
			}
		}
	}
	JOINT Right_Thigh
	{
		OFFSET -0.1118 -0.1612 -0.0442
		CHANNELS 3 Xrotation Zrotation Yrotation
		JOINT Right_Shin
		{
			OFFSET 0 -0.477856 0
			CHANNELS 1 Xrotation
			JOINT Right_Foot
			{
				OFFSET 0 -0.431952 0
				CHANNELS 2 Xrotation Zrotation
				JOINT Right_Toe
				{
					OFFSET 0 -0.0442 0.119
					CHANNELS 1 Xrotation
					End Site
					{
						OFFSET -0 -0 0.07
					}
				}
			}
		}
	}
}
MOTION
Frames: 10
Frame Time: 0.009975
-0.100628 -0.060061 0.0381082 6.017e-012 -5.63099e-009 -5.1097e-006 0 -0 0 0 -0 0 0 -0 0 -0.711895 0.288988 6.88833e-012 -4.13301 -8.78908 -2.54082 -13.6025 -36.4341 -65.3761 11.7609 12.5518 -4.68974 -48.977 -41.7405 84.0629 -6.96334 -10.3988 -7.77291 -12.8002 -25.9326 -14.6833 -0.95539 -13.6135 -13.3306 -11.6231 3.81589 -11.8151 -25.6927 -13.962 13.9062 -8.92482 -38.6567 -6.29952 6.18863 11.6624 -18.9948 28.3877 29.3241 28.1117 18.0141 -17.837 6.97209 65.1363 58.3041 90.3744 9.91503 7.84494 7.94532 8.46602 18.9144 16.0775 1.38301 -0.802084 7.29398 3.49258 3.38824 -1.73532 9.32775 6.98923 -8.24778 -3.75746 37.2855 -33.6743 -0.0675701 -0.703548 0.000829561 0.0240216 0.0435434 0.703554 0 -0.0561645 -0.703548 0.00068951 1.70755e-006 0.0561582 0.703554 0 
-0.100558 -0.0600617 0.0383316 -6.09384e-012 -4.38039e-009 -5.10971e-006 0 -0 0 0 -0 0 0 -0 0 -0.711913 0.288802 7.35689e-012 -4.03789 -8.6774 -1.60777 -13.1481 -36.9351 -66.6709 11.4903 12.263 -4.58181 -48.4113 -41.1941 83.758 -6.86132 -10.4844 -7.72009 -12.9698 -26.184 -14.629 -0.941126 -14.1189 -13.5584 -11.9233 4.05773 -12.2885 -26.2748 -14.2116 14.0657 -9.36523 -38.7433 -7.74453 6.18863 11.6624 -18.9948 28.3877 29.3241 28.1117 18.0141 -17.837 6.97209 65.1363 58.3041 90.3744 9.91503 7.84494 7.94532 8.46602 18.9144 16.0775 1.38301 -0.802084 7.29398 3.49258 3.38824 -1.73532 9.32775 6.98923 -8.24778 -3.75746 37.2855 -33.6743 -0.0535012 -0.707957 0.000660918 0.0240216 0.0294755 0.707962 0 -0.0420955 -0.707957 0.000519992 1.21949e-006 0.0420911 0.707962 0 
-0.100486 -0.0600625 0.0385575 -9.77694e-013 -3.11523e-009 -5.10971e-006 0 -0 0 0 -0 0 0 -0 0 -0.711931 0.288609 7.83836e-012 -3.94154 -8.56417 -0.663841 -12.7166 -37.4537 -67.9299 11.2161 11.9703 -4.47248 -47.8457 -40.6477 83.4531 -6.75931 -10.57 -7.66728 -13.1395 -26.4353 -14.5746 -0.926862 -14.6242 -13.7863 -12.2235 4.29957 -12.762 -26.8569 -14.4611 14.2252 -9.80564 -38.8299 -9.18954 6.18863 11.6624 -18.9948 28.3877 29.3241 28.1117 18.0141 -17.837 6.97209 65.1363 58.3041 90.3744 9.91503 7.84494 7.94532 8.46602 18.9144 16.0775 1.38301 -0.802084 7.29398 3.49258 3.38824 -1.73532 9.32775 6.98923 -8.24778 -3.75746 37.2855 -33.6743 -0.0392749 -0.712529 0.000488266 0.0240216 0.0152502 0.712534 0 -0.0278692 -0.712529 0.000346432 1.18931e-006 0.0278659 0.712534 0 
-0.100411 -0.0600633 0.0387857 -2.15478e-011 -1.83641e-009 -5.10972e-006 0 -0 0 0 -0 0 0 -0 0 -0.711949 0.288407 8.32831e-012 -3.84403 -8.44948 0.290176 -12.3087 -37.9897 -69.1521 10.9386 11.6742 -4.36183 -47.28 -40.1013 83.1482 -6.6573 -10.6556 -7.61446 -13.3091 -26.6867 -14.5202 -0.912598 -15.1296 -14.0141 -12.5237 4.54141 -13.2355 -27.439 -14.7107 14.3847 -10.2461 -38.9164 -10.6345 6.18863 11.6624 -18.9948 28.3877 29.3241 28.1117 18.0141 -17.837 6.97209 65.1363 58.3041 90.3744 9.91503 7.84494 7.94532 8.46602 18.9144 16.0775 1.38301 -0.802084 7.29398 3.49258 3.38824 -1.73532 9.32775 6.98923 -8.24778 -3.75746 37.2855 -33.6743 -0.0249026 -0.717264 0.000311586 0.0240216 0.000878977 0.717269 0 -0.0134969 -0.717264 0.000168801 2.41484e-006 0.0134934 0.717269 0 
-0.100333 -0.0600643 0.039016 -4.32376e-012 -5.45097e-010 -5.10973e-006 0 -0 0 0 -0 0 0 -0 0 -0.711968 0.288199 8.83133e-012 -3.74542 -8.33342 1.25345 -11.9249 -38.543 -70.3363 10.658 11.3747 -4.24994 -46.7143 -39.5549 82.8433 -6.55528 -10.7412 -7.56164 -13.4788 -26.9381 -14.4659 -0.898334 -15.6349 -14.2419 -12.8238 4.78325 -13.709 -28.0211 -14.9602 14.5442 -10.6865 -39.003 -12.0796 6.18863 11.6624 -18.9948 28.3877 29.3241 28.1117 18.0141 -17.837 6.97209 65.1363 58.3041 90.3744 9.91503 7.84494 7.94532 8.46602 18.9144 16.0775 1.38301 -0.802084 7.29398 3.49258 3.38824 -1.73532 9.32775 6.98923 -8.24778 -3.75746 37.2855 -33.6743 -0.0103952 -0.722161 0.000130859 0.0240216 -0.0136273 0.722166 0 0.00101057 -0.722161 -1.29079e-005 1.2376e-006 -0.00101172 0.722166 0 
-0.100253 -0.0600653 0.0392484 -8.44378e-011 7.57922e-010 -5.10973e-006 0 -0 0 0 -0 0 0 -0 0 -0.711987 0.287983 9.33977e-012 -3.64579 -8.21607 2.22507 -11.5659 -39.1135 -71.4816 10.3745 11.0722 -4.13689 -46.1487 -39.0085 82.5384 -6.45327 -10.8269 -7.50883 -13.6485 -27.1894 -14.4115 -0.88407 -16.1403 -14.4698 -13.124 5.02509 -14.1825 -28.6032 -15.2097 14.7037 -11.1269 -39.0896 -13.5246 6.18863 11.6624 -18.9948 28.3877 29.3241 28.1117 18.0141 -17.837 6.97209 65.1363 58.3041 90.3744 9.91503 7.84494 7.94532 8.46602 18.9144 16.0775 1.38301 -0.802084 7.29398 3.49258 3.38824 -1.73532 9.32775 6.98923 -8.24778 -3.75746 37.2855 -33.6743 0.00423649 -0.727219 -5.39365e-005 0.0240216 -0.0282578 0.727224 0 0.0156422 -0.727219 -0.000198702 0 -0.015641 0.727224 0 
-0.10017 -0.0600665 0.0394825 -3.20267e-011 2.07149e-009 -5.10974e-006 0 -0 0 0 -0 0 0 -0 0 -0.712006 0.28776 9.86102e-012 -3.5452 -8.0975 3.20405 -11.232 -39.7009 -72.5869 10.0882 10.7667 -4.02275 -45.583 -38.4621 82.2335 -6.35125 -10.9125 -7.45601 -13.8181 -27.4408 -14.3571 -0.869807 -16.6456 -14.6976 -13.4242 5.26693 -14.656 -29.1853 -15.4593 14.8632 -11.5673 -39.1762 -14.9696 6.18863 11.6624 -18.9948 28.3877 29.3241 28.1117 18.0141 -17.837 6.97209 65.1363 58.3041 90.3744 9.91503 7.84494 7.94532 8.46602 18.9144 16.0775 1.38301 -0.802084 7.29398 3.49258 3.38824 -1.73532 9.32775 6.98923 -8.24778 -3.75746 37.2855 -33.6743 0.0189817 -0.732437 -0.000242819 0.0240216 -0.0430017 0.732442 0 0.0303874 -0.732437 -0.000388619 8.23892e-007 -0.0303858 0.732442 0 
-0.100084 -0.0600677 0.0397182 1.72658e-011 4.03419e-009 -5.10975e-006 0 -0 0 0 -0 0 0 -0 0 -0.712026 0.287529 1.0385e-011 -3.44372 -7.97781 4.18932 -10.9238 -40.3052 -73.6512 9.79947 10.4585 -3.90759 -45.0173 -37.9157 81.9286 -6.24924 -10.9981 -7.4032 -13.9878 -27.6921 -14.3028 -0.855543 -17.151 -14.9254 -13.7244 5.50877 -15.1295 -29.7673 -15.7088 15.0227 -12.0077 -39.2628 -16.4146 6.18863 11.6624 -18.9948 28.3877 29.3241 28.1117 18.0141 -17.837 6.97209 65.1363 58.3041 90.3744 9.91503 7.84494 7.94532 8.46602 18.9144 16.0775 1.38301 -0.802084 7.29398 3.49258 3.38824 -1.73532 9.32775 6.98923 -8.24778 -3.75746 37.2855 -33.6743 0.0338298 -0.737814 -0.000435806 0.0240216 -0.0578486 0.73782 0 0.0452355 -0.737814 -0.000582676 1.70755e-006 -0.0452338 0.73782 0 
-0.0999965 -0.0600691 0.0399555 -1.95587e-012 5.3666e-009 -5.10975e-006 0 -0 0 0 -0 0 0 -0 0 -0.712047 0.287291 1.09201e-011 -3.34141 -7.85706 5.17972 -10.6414 -40.9259 -74.6738 9.50834 10.1478 -3.79151 -44.4517 -37.3693 81.6237 -6.14722 -11.0837 -7.35038 -14.1575 -27.9435 -14.2484 -0.841279 -17.6563 -15.1533 -14.0246 5.75061 -15.603 -30.3494 -15.9583 15.1822 -12.4481 -39.3493 -17.8596 6.18863 11.6624 -18.9948 28.3877 29.3241 28.1117 18.0141 -17.837 6.97209 65.1363 58.3041 90.3744 9.91503 7.84494 7.94532 8.46602 18.9144 16.0775 1.38301 -0.802084 7.29398 3.49258 3.38824 -1.73532 9.32775 6.98923 -8.24778 -3.75746 37.2855 -33.6743 0.04877 -0.74335 -0.00063291 0.0240216 -0.0727876 0.743355 0 0.0601758 -0.74335 -0.000780883 1.26175e-006 -0.060172 0.743355 0 
-0.0999061 -0.0600706 0.040194 -4.30384e-012 6.06667e-009 -5.10975e-006 0 -0 0 0 -0 0 0 -0 0 -0.712068 0.287046 1.14564e-011 -3.23834 -7.73534 6.17402 -10.385 -41.563 -75.6536 9.21504 9.83474 -3.67455 -43.886 -36.8229 81.3188 -6.04521 -11.1693 -7.29756 -14.3271 -28.1949 -14.194 -0.827015 -18.1617 -15.3811 -14.3248 5.99245 -16.0765 -30.9315 -16.2079 15.3417 -12.8885 -39.4359 -19.3046 6.18863 11.6624 -18.9948 28.3877 29.3241 28.1117 18.0141 -17.837 6.97209 65.1363 58.3041 90.3744 9.91503 7.84494 7.94532 8.46602 18.9144 16.0775 1.38301 -0.802084 7.29398 3.49258 3.38824 -1.73532 9.32775 6.98923 -8.24778 -3.75746 37.2855 -33.6743 0.063792 -0.749043 -0.000834143 0.0240216 -0.0878082 0.749048 0 0.0751978 -0.749043 -0.000983251 0 -0.0751914 0.749048 0 
